<svg xmlns="http://www.w3.org/2000/svg" viewBox="0 0 1440 320"><path fill="#0099ff" fill-opacity="1" d="M0,256L9.2,213.3C18.5,171,37,85,55,69.3C73.8,53,92,107,111,117.3C129.2,128,148,96,166,112C184.6,128,203,192,222,208C240,224,258,192,277,192C295.4,192,314,224,332,240C350.8,256,369,256,388,234.7C406.2,213,425,171,443,154.7C461.5,139,480,149,498,170.7C516.9,192,535,224,554,218.7C572.3,213,591,171,609,160C627.7,149,646,171,665,181.3C683.1,192,702,192,720,213.3C738.5,235,757,277,775,245.3C793.8,213,812,107,831,58.7C849.2,11,868,21,886,58.7C904.6,96,923,160,942,197.3C960,235,978,245,997,218.7C1015.4,192,1034,128,1052,128C1070.8,128,1089,192,1108,202.7C1126.2,213,1145,171,1163,149.3C1181.5,128,1200,128,1218,154.7C1236.9,181,1255,235,1274,229.3C1292.3,224,1311,160,1329,154.7C1347.7,149,1366,203,1385,234.7C1403.1,267,1422,277,1431,282.7L1440,288L1440,320L1430.8,320C1421.5,320,1403,320,1385,320C1366.2,320,1348,320,1329,320C1310.8,320,1292,320,1274,320C1255.4,320,1237,320,1218,320C1200,320,1182,320,1163,320C1144.6,320,1126,320,1108,320C1089.2,320,1071,320,1052,320C1033.8,320,1015,320,997,320C978.5,320,960,320,942,320C923.1,320,905,320,886,320C867.7,320,849,320,831,320C812.3,320,794,320,775,320C756.9,320,738,320,720,320C701.5,320,683,320,665,320C646.2,320,628,320,609,320C590.8,320,572,320,554,320C535.4,320,517,320,498,320C480,320,462,320,443,320C424.6,320,406,320,388,320C369.2,320,351,320,332,320C313.8,320,295,320,277,320C258.5,320,240,320,222,320C203.1,320,185,320,166,320C147.7,320,129,320,111,320C92.3,320,74,320,55,320C36.9,320,18,320,9,320L0,320Z"></path></svg>